<svg>

<symbol viewBox="0 0 220 60"  xmlns="http://www.w3.org/2000/svg" id="logo">
<path d="M0 58.3374V54.0014C2.24439 52.8805 4.96128 52.0546 8.15067 51.5237L9.12521 7.45533L0 5.15458V0.464572H47.9295L47.8409 20.198H41.9051L38.5385 8.42873H16.1242L21.7056 2.85382V50.4618H34.3746C36.678 49.7538 38.4204 48.633 39.6016 47.0991C40.7829 45.5653 41.3735 43.7365 41.3735 41.6127C41.3735 38.663 40.5466 36.4213 38.8929 34.8874C37.2982 33.2946 34.9061 32.4982 31.7168 32.4982H15.5926V24.534H34.4632C40.7829 24.534 45.7737 26.0384 49.4356 29.047C53.0975 32.0557 54.9285 35.9788 54.9285 40.8163C54.9285 46.1847 52.8613 50.4618 48.7268 53.6474C44.6515 56.7741 39.0996 58.3374 32.0711 58.3374H0Z" />
<path d="M62.7137 24.4566L62.4811 21.1382L72.5144 9.42425V13.0413L62.7137 24.4566ZM58.3615 25.1535V23.7597C58.6273 23.6049 58.9041 23.4611 59.192 23.3283C59.48 23.1735 59.8122 23.0297 60.1887 22.8969L60.4545 11.0171L58.3615 10.3866V8.86012H66.335V10.2538C66.0692 10.4308 65.7923 10.5857 65.5044 10.7184C65.2165 10.8512 64.9064 10.9728 64.5741 11.0834L64.6074 22.9965L66.4014 23.5938V25.1535H58.3615ZM68.3283 25.1535V23.7597C68.6384 23.5827 68.9596 23.4279 69.2918 23.2952C69.624 23.1403 69.9341 23.0076 70.222 22.8969L70.4878 11.0834L68.3283 10.3866V8.86012H76.4679V10.2538C75.9585 10.5636 75.3383 10.8401 74.6074 11.0834V22.9965L76.4679 23.5938V25.1535H68.3283Z" />
<path d="M86.7494 25.5185C85.0882 25.5185 83.6818 25.1645 82.5301 24.4566C81.3783 23.7487 80.5035 22.6978 79.9055 21.3041C79.3296 19.9104 79.0417 18.2069 79.0417 16.1938C79.0417 14.7337 79.097 13.4395 79.2078 12.3113C79.3407 11.1609 79.54 10.0769 79.8058 9.05923C80.138 7.88672 80.6031 6.86908 81.2011 6.0063C81.7992 5.14352 82.5854 4.41347 83.56 3.81616C84.5567 3.19672 85.7859 2.67684 87.2477 2.25651C88.7095 1.83618 90.4703 1.5154 92.5301 1.29417L92.7627 4.9776C91.3009 5.1767 89.9831 5.38687 88.8092 5.60809C87.6353 5.8072 86.5611 6.03948 85.5866 6.30496C84.612 6.5483 83.7039 6.8359 82.8623 7.16774L84.8889 5.93993C84.6009 6.44875 84.3462 7.24517 84.1248 8.32918C83.9254 9.39107 83.7593 10.7295 83.6264 12.3444L83.6596 12.8422C83.6153 13.2847 83.5821 13.7382 83.56 14.2027C83.5378 14.6452 83.5267 15.1983 83.5267 15.8619C83.5267 17.499 83.6596 18.8043 83.9254 19.7777C84.1912 20.751 84.5677 21.459 85.055 21.9014C85.5644 22.3218 86.1846 22.5319 86.9155 22.5319C87.3141 22.5319 87.735 22.4766 88.1779 22.366C88.6209 22.2333 89.0971 22.0452 89.6065 21.8019L89.0085 22.2333C89.4293 21.5253 89.7173 20.7842 89.8723 20.0099C90.0495 19.2135 90.1381 18.2291 90.1381 17.0566C90.1381 16.1053 89.9941 15.2757 89.7062 14.5678C89.4183 13.8377 89.0085 13.2736 88.477 12.8754C87.9675 12.4551 87.3584 12.2449 86.6497 12.2449C86.1181 12.2449 85.5866 12.3444 85.055 12.5435C84.5234 12.7205 83.9365 13.0081 83.2942 13.4063L83.2277 12.5767C83.8258 11.8246 84.4459 11.1388 85.0882 10.5193C85.7305 9.89989 86.4061 9.33576 87.1148 8.82694C87.2477 8.80482 87.3695 8.79375 87.4803 8.79375C87.6132 8.77163 87.746 8.76057 87.8789 8.76057C89.2522 8.76057 90.4371 9.11453 91.4338 9.82246C92.4526 10.5304 93.2389 11.4817 93.7926 12.6763C94.3463 13.8709 94.6232 15.2314 94.6232 16.7579C94.6232 18.5498 94.302 20.0984 93.6597 21.4037C93.0174 22.7089 92.1093 23.7265 90.9354 24.4566C89.7616 25.1645 88.3662 25.5185 86.7494 25.5185ZM92.7627 4.9776L87.7793 3.98208L92.6963 0L94.0252 0.630495L92.7627 4.9776Z" />
<path d="M95.6204 25.253V21.0055L99.7732 21.6028L98.0124 23.0961C98.4333 22.543 98.7987 21.7798 99.1088 20.8064C99.4189 19.8108 99.6736 18.6052 99.8729 17.1893C100.094 15.7513 100.283 14.0921 100.438 12.2117L100.77 9.19196L102.431 11.7803L97.6138 10.3866V8.86012H112.464V10.2538C112.243 10.4087 111.977 10.5636 111.667 10.7184C111.379 10.8512 111.025 10.9728 110.604 11.0834V22.9965L112.464 23.627V25.1535H104.424V23.7929C104.757 23.6159 105.056 23.4611 105.321 23.3283C105.587 23.1735 105.886 23.0407 106.218 22.9301L106.484 11.3821H103.096C102.874 14.0811 102.586 16.3376 102.232 18.1516C101.9 19.9436 101.457 21.3815 100.903 22.4656C100.349 23.5274 99.6404 24.2796 98.7766 24.7221C97.9128 25.1424 96.8607 25.3194 95.6204 25.253Z" />
<path d="M118.842 24.4566L118.61 21.1382L128.643 9.42425V13.0413L118.842 24.4566ZM114.49 25.1535V23.7597C114.756 23.6049 115.033 23.4611 115.32 23.3283C115.608 23.1735 115.941 23.0297 116.317 22.8969L116.583 11.0171L114.49 10.3866V8.86012H122.463V10.2538C122.198 10.4308 121.921 10.5857 121.633 10.7184C121.345 10.8512 121.035 10.9728 120.703 11.0834L120.736 22.9965L122.53 23.5938V25.1535H114.49ZM124.457 25.1535V23.7597C124.767 23.5827 125.088 23.4279 125.42 23.2952C125.752 23.1403 126.063 23.0076 126.35 22.8969L126.616 11.0834L124.457 10.3866V8.86012H132.596V10.2538C132.087 10.5636 131.467 10.8401 130.736 11.0834V22.9965L132.596 23.5938V25.1535H124.457Z" />
<path d="M142.053 25.5185C140.48 25.5185 139.129 25.1866 137.999 24.523C136.892 23.8593 136.028 22.908 135.408 21.6691C134.81 20.4303 134.511 18.9481 134.511 17.2225C134.511 15.4305 134.832 13.882 135.475 12.5767C136.117 11.2715 137.025 10.2649 138.199 9.55699C139.395 8.84906 140.812 8.4951 142.451 8.4951C144.046 8.4951 145.408 8.82694 146.538 9.49062C147.689 10.1543 148.575 11.0945 149.196 12.3113C149.816 13.528 150.126 14.977 150.126 16.6584C150.126 18.4945 149.794 20.0763 149.129 21.4037C148.487 22.731 147.568 23.7487 146.372 24.4566C145.176 25.1645 143.736 25.5185 142.053 25.5185ZM142.318 22.8306C143.005 22.8306 143.592 22.6204 144.079 22.2001C144.589 21.7798 144.965 21.1382 145.209 20.2754C145.475 19.3905 145.608 18.2954 145.608 16.9902C145.608 15.7071 145.475 14.6563 145.209 13.8377C144.965 12.9971 144.578 12.3776 144.046 11.9794C143.537 11.5812 142.905 11.3821 142.152 11.3821C141.621 11.3821 141.001 11.4817 140.292 11.6808C139.605 11.8799 138.741 12.1785 137.7 12.5767L140.325 10.818C139.882 11.7693 139.55 12.7426 139.328 13.7382C139.129 14.7337 139.029 15.8509 139.029 17.0897C139.029 18.395 139.151 19.4679 139.395 20.3086C139.661 21.1493 140.037 21.7798 140.524 22.2001C141.034 22.6204 141.632 22.8306 142.318 22.8306Z" />
<path d="M166.627 8.86012V15.9947H164.932L163.836 11.2826H160.912V22.9965L163.902 23.5938V25.1535H153.537V23.7597C154.024 23.5827 154.511 23.4279 154.999 23.2952C155.508 23.1403 156.018 23.0076 156.527 22.8969L156.793 11.2826H153.869L152.773 15.9947H151.012V8.86012H166.627Z" />
<path d="M174.977 25.5185C173.515 25.5185 172.241 25.1756 171.156 24.4898C170.071 23.804 169.218 22.8416 168.598 21.6028C168 20.3418 167.701 18.8706 167.701 17.1893C167.701 15.4637 168.022 13.9483 168.664 12.6431C169.307 11.3379 170.204 10.3313 171.355 9.62335C172.507 8.89331 173.88 8.52828 175.475 8.52828C176.804 8.52828 177.944 8.79375 178.897 9.3247C179.871 9.83352 180.624 10.5636 181.156 11.5148C181.688 12.444 181.942 13.5612 181.92 14.8664L181.854 16.9902C180.392 17.2557 179.041 17.4769 177.8 17.6539C176.582 17.8087 175.375 17.9415 174.179 18.0521C172.983 18.1406 171.71 18.218 170.359 18.2844L170.392 15.9615L177.9 15.9283L177.967 14.6341C177.967 13.5944 177.712 12.798 177.202 12.2449C176.693 11.6697 175.973 11.3821 175.043 11.3821C174.666 11.3821 174.29 11.4374 173.913 11.548C173.537 11.6365 173.16 11.7693 172.784 11.9462C172.474 12.6763 172.23 13.4285 172.053 14.2027C171.898 14.977 171.82 15.7403 171.82 16.4924C171.82 18.3507 172.252 19.7666 173.116 20.74C174.002 21.6913 175.253 22.1669 176.87 22.1669C178.266 22.1669 179.882 21.8129 181.721 21.105L182.053 21.9014C181.078 23.0739 179.982 23.9699 178.764 24.5893C177.568 25.2088 176.305 25.5185 174.977 25.5185Z" />
<path d="M184.083 25.1535V23.7597C184.371 23.6049 184.67 23.45 184.98 23.2952C185.291 23.1403 185.612 23.0076 185.944 22.8969L186.21 11.0171L184.083 10.3866V8.86012H192.223V10.2538C191.692 10.5636 191.06 10.8401 190.329 11.0834V22.9965L192.157 23.5938V25.1535H184.083ZM188.469 18.2512V15.7292H194.349V18.2512H188.469ZM196.11 25.1535L191.824 17.1561L195.213 14.4018L200.529 23.7929L199.765 22.8306L201.791 23.5938V25.1535H196.11ZM194.582 17.8198L191.625 17.1561L194.316 12.2449C194.715 11.5148 195.158 10.8843 195.645 10.3534C196.132 9.82246 196.73 9.41319 197.439 9.12559C198.148 8.81588 199.001 8.66102 199.997 8.66102C200.174 8.66102 200.352 8.66102 200.529 8.66102C200.706 8.66102 200.894 8.67208 201.094 8.6942V12.9418L197.107 12.4108L198.668 11.4153C198.447 11.6365 198.203 11.9352 197.937 12.3113C197.672 12.6873 197.406 13.0855 197.14 13.5059L194.582 17.8198Z" />
<path d="M216.345 25.4189C215.548 25.4189 214.806 25.1535 214.12 24.6225C213.433 24.0694 212.957 23.2288 212.691 22.1005L213.123 12.7426C211.572 11.6808 209.69 11.1498 207.475 11.1498C207.121 11.1498 206.766 11.1719 206.412 11.2162C206.057 11.2604 205.725 11.3157 205.415 11.3821L207.973 10.1543L207.242 15.1983C206.113 15.1319 205.26 14.8996 204.684 14.5014C204.108 14.1032 203.82 13.5612 203.82 12.8754C203.82 12.079 204.131 11.36 204.751 10.7184C205.371 10.0547 206.201 9.5238 207.242 9.12559C208.283 8.72739 209.424 8.52828 210.664 8.52828C211.971 8.52828 213.167 8.78269 214.252 9.29151C215.36 9.77821 216.312 10.4972 217.11 11.4485V22.001L220 21.7023C219.978 22.4324 219.801 23.085 219.468 23.6602C219.136 24.2132 218.693 24.6446 218.139 24.9544C217.608 25.2641 217.01 25.4189 216.345 25.4189ZM209.402 25.5185C207.608 25.4964 206.179 25.076 205.116 24.2575C204.075 23.4168 203.555 22.3107 203.555 20.9391C203.555 20.3418 203.688 19.8108 203.953 19.3463C204.219 18.8817 204.717 18.4503 205.448 18.0521C206.179 17.6318 207.209 17.2004 208.538 16.7579C209.889 16.2933 211.628 15.7735 213.754 15.1983V17.4216L206.943 18.4503L208.306 17.853C208.195 18.1848 208.117 18.5167 208.073 18.8485C208.029 19.1803 208.007 19.5011 208.007 19.8108C208.007 20.6515 208.184 21.282 208.538 21.7023C208.892 22.1227 209.446 22.3328 210.199 22.3328C210.709 22.3328 211.229 22.2443 211.761 22.0673C212.314 21.8904 212.89 21.6138 213.488 21.2377V21.6691C212.912 22.4434 212.292 23.1514 211.628 23.7929C210.986 24.4123 210.244 24.9875 209.402 25.5185Z" />
<path d="M58.4611 58.3374V56.811C58.9927 56.5897 59.5132 56.4128 60.0226 56.28C60.5542 56.1252 61.0858 55.9924 61.6173 55.8818L61.9828 39.0244L58.4611 38.1948V36.5024H66.4346V55.9814L70.2885 56.6782V58.3374H58.4611ZM63.9761 39.3562V36.5024H75.737V39.3562H63.9761ZM74.6739 44.8979L72.2486 36.5024H76.4679V44.8979H74.6739Z" />
<path d="M81.3704 58.4702V53.3267L88.5797 54.7536L86.4202 55.4172C86.8189 55.019 87.1844 54.6208 87.5166 54.2226C87.8488 53.8023 88.1589 53.3488 88.4468 52.8621C88.7348 52.3533 89.0006 51.7781 89.2442 51.1365L95.025 36.8342H98.015V38.4934L91.6362 52.6962C91.0161 54.0678 90.3184 55.185 89.5432 56.0477C88.7901 56.8884 87.871 57.5189 86.7857 57.9392C85.7226 58.3374 84.3937 58.5365 82.799 58.5365C82.5775 58.5365 82.3449 58.5255 82.1013 58.5034C81.8577 58.5034 81.614 58.4923 81.3704 58.4702ZM88.1811 54.7868L79.4767 38.2611V36.8342H83.995L90.3738 50.2074L88.1811 54.7868ZM82.4003 39.7544L77.4169 38.2279V36.5024H87.8821V38.0288C87.0847 38.4713 86.2209 38.8363 85.2907 39.1239C84.3604 39.4115 83.397 39.6217 82.4003 39.7544ZM95.1911 39.7544L91.0382 38.2279V36.5024H99.8423V38.0288C99.0449 38.4713 98.2808 38.8363 97.5499 39.1239C96.819 39.4115 96.0327 39.6217 95.1911 39.7544Z" />
<path d="M105.992 57.6406V53.5589L119.913 37.3983V41.5463L105.992 57.6406ZM100.344 58.3374V56.811C100.876 56.5897 101.396 56.4128 101.906 56.28C102.437 56.1252 102.969 55.9924 103.5 55.8818L103.866 39.0244L100.344 38.1948V36.5024H111.308V38.0288C110.865 38.2279 110.378 38.4049 109.846 38.5598C109.314 38.7146 108.783 38.8474 108.251 38.958L108.285 55.9482L111.208 56.6451V58.3374H100.344ZM114.431 58.3374V56.7778C114.918 56.5787 115.405 56.4128 115.893 56.28C116.402 56.1252 116.889 55.9924 117.354 55.8818L117.72 39.0244L114.398 38.1948V36.5024H125.295V38.0288C124.829 38.2279 124.331 38.4049 123.8 38.5598C123.268 38.7146 122.725 38.8474 122.172 38.958V55.9482L125.295 56.6451V58.3374H114.431Z" />
<path d="M139.963 36.5024C141.492 36.5024 142.798 36.7678 143.884 37.2988C144.991 37.8297 145.844 38.5819 146.442 39.5553C147.04 40.5287 147.339 41.6901 147.339 43.0396C147.339 44.4776 146.984 45.7496 146.276 46.8558C145.567 47.9398 144.581 48.7805 143.319 49.3778C142.056 49.9751 140.583 50.2737 138.9 50.2737H132.986V47.4531H140.528C141.215 46.9 141.724 46.2916 142.056 45.628C142.389 44.9422 142.555 44.1568 142.555 43.2719C142.555 41.9667 142.222 40.9933 141.558 40.3517C140.894 39.688 139.941 39.3562 138.701 39.3562H135.379V55.9482L139.664 56.6451V58.3374H127.405V56.811C127.804 56.5897 128.258 56.4128 128.767 56.28C129.277 56.1252 129.875 55.9924 130.561 55.8818L130.927 39.0244L127.405 38.1948V36.5024H139.963Z" />
<path d="M198.713 31.3114C198.465 30.9917 198.005 30.9328 197.684 31.1799C197.364 31.427 197.305 31.8865 197.552 32.2063C198.388 33.2847 199.511 36.0441 197.552 38.5734C197.305 38.8932 197.364 39.3527 197.684 39.5998C198.005 39.8469 198.465 39.788 198.713 39.4683C201.253 36.1881 199.753 32.6537 198.713 31.3114Z" />
<path d="M191.884 31.3114C191.636 30.9917 191.175 30.9328 190.855 31.1799C190.534 31.427 190.475 31.8865 190.723 32.2063C191.558 33.2847 192.682 36.0441 190.723 38.5734C190.475 38.8932 190.534 39.3527 190.855 39.5998C191.175 39.8469 191.636 39.788 191.884 39.4683C194.424 36.1881 192.923 32.6536 191.884 31.3114Z" />
<path fill-rule="evenodd" clip-rule="evenodd" d="M183.269 31.7588C184.378 31.7588 185.277 32.662 185.277 33.7761V48.2063L190.225 43.7088C190.309 43.6166 190.402 43.5323 190.502 43.4571C190.543 43.4204 190.584 43.3918 190.626 43.3706C190.938 43.1709 191.308 43.0552 191.705 43.0552C192.814 43.0552 193.714 43.9584 193.714 45.0725V48.5844L199.06 43.7117C199.145 43.6187 199.238 43.5336 199.339 43.4578C199.381 43.42 199.423 43.3908 199.466 43.3693C199.778 43.1704 200.147 43.0552 200.543 43.0552C201.653 43.0552 202.552 43.9584 202.552 45.0725V56.1424L204.059 54.932C204.405 54.6536 204.911 54.71 205.188 55.058C205.465 55.406 205.409 55.9138 205.062 56.1922L202.017 58.9494C201.934 59.0397 201.843 59.1223 201.745 59.1961L201.735 59.2038L201.718 59.2155C201.388 59.4552 200.982 59.5965 200.543 59.5965C199.434 59.5965 198.535 58.6933 198.535 57.5793V46.4898L193.714 50.9836V56.1425L195.22 54.932C195.567 54.6536 196.073 54.71 196.35 55.058C196.627 55.406 196.571 55.9138 196.224 56.1922L193.179 58.9499C193.096 59.0394 193.006 59.1213 192.908 59.1946C192.899 59.2021 192.889 59.2096 192.878 59.217C192.548 59.4558 192.143 59.5965 191.705 59.5965C190.596 59.5965 189.696 58.6933 189.696 57.5793V54.7283L184.782 59.3091C184.689 59.4159 184.585 59.5128 184.472 59.5979C184.441 59.6264 184.401 59.6537 184.356 59.6795C184.042 59.8823 183.669 60 183.269 60C182.159 60 181.26 59.0968 181.26 57.9828V54.3347L176.343 58.9094C176.251 59.0144 176.148 59.1097 176.037 59.1937C176.005 59.2222 175.966 59.2496 175.92 59.2754C175.607 59.4786 175.233 59.5965 174.832 59.5965C173.723 59.5965 172.824 58.6933 172.824 57.5793V46.617L172.187 47.2568C171.873 47.5719 171.364 47.5719 171.05 47.2568C170.737 46.9417 170.737 46.4308 171.05 46.1157L173.225 43.8625C173.591 43.3723 174.175 43.0552 174.832 43.0552C175.942 43.0552 176.841 43.9584 176.841 45.0725V55.8753L181.26 51.8582V35.2026L158.91 56.152C158.585 56.4561 158.077 56.4385 157.774 56.1127C157.471 55.7869 157.489 55.2763 157.813 54.9722L181.744 32.4632C181.839 32.3513 181.947 32.25 182.065 32.1614C182.113 32.1161 182.162 32.0829 182.212 32.0602C182.519 31.8691 182.881 31.7588 183.269 31.7588ZM185.277 50.5975V56.2728L189.696 52.2456V46.4867L185.277 50.5975Z" />
<path d="M194.47 31.1799C194.791 30.9328 195.252 30.9917 195.499 31.3114C196.539 32.6537 198.04 36.1881 195.499 39.4683C195.252 39.788 194.791 39.8469 194.471 39.5998C194.15 39.3527 194.091 38.8932 194.339 38.5734C196.298 36.0441 195.174 33.2847 194.339 32.2063C194.091 31.8865 194.15 31.427 194.47 31.1799Z" />
</symbol>


<symbol  viewBox="0 0 26 26" xmlns="http://www.w3.org/2000/svg" id="search-icon">
<path fill-rule="evenodd" clip-rule="evenodd" d="M11.7619 0C8.64245 0 5.65077 1.2392 3.44498 3.44498C1.2392 5.65077 0 8.64245 0 11.7619C0 14.8814 1.2392 17.873 3.44498 20.0788C5.65077 22.2846 8.64245 23.5238 11.7619 23.5238C14.4679 23.5238 17.0777 22.5913 19.1618 20.9043L23.8857 25.6366C24.1098 25.8611 24.4196 26 24.7619 26C25.4457 26 26 25.4457 26 24.7619C26 24.4204 25.8617 24.1112 25.6382 23.8872L20.9119 19.1525C22.5941 17.07 23.5238 14.4639 23.5238 11.7619C23.5238 8.64245 22.2846 5.65077 20.0788 3.44498C17.873 1.2392 14.8814 0 11.7619 0ZM5.19591 5.19591C6.93732 3.4545 9.29918 2.47619 11.7619 2.47619C14.2246 2.47619 16.5865 3.4545 18.3279 5.19591C20.0693 6.93732 21.0476 9.29918 21.0476 11.7619C21.0476 14.2246 20.0693 16.5865 18.3279 18.3279C16.5865 20.0693 14.2246 21.0476 11.7619 21.0476C9.29918 21.0476 6.93732 20.0693 5.19591 18.3279C3.4545 16.5865 2.47619 14.2246 2.47619 11.7619C2.47619 9.29918 3.4545 6.93732 5.19591 5.19591Z"/>
</symbol>



<symbol  viewBox="0 0 35 26"  xmlns="http://www.w3.org/2000/svg" id="eye-icon">
<path d="M17.5 7.96289C16.8889 7.96289 16.3389 8.0806 15.7889 8.19831C16.4611 8.72801 16.8889 9.55198 16.8889 10.4348C16.8889 12.0828 15.5444 13.3776 13.8333 13.3776C13.1611 13.3776 12.55 13.1422 12 12.789V13.201C12 16.1438 14.4444 18.498 17.5 18.498C20.5556 18.498 23 16.1438 23 13.201C23 10.2582 20.5556 7.96289 17.5 7.96289Z"  fill-opacity="0.6"/>
<path fill-rule="evenodd" clip-rule="evenodd" d="M31.5136 18.561C33.3963 16.4023 34.5028 14.2916 34.5028 13.0157C34.5028 9.78216 26.7972 0.300781 17.2514 0.300781C7.70563 0.300781 0 9.78216 0 13.0157C0 16.2492 7.70563 25.7306 17.2514 25.7306C19.3546 25.7306 21.3852 25.2802 23.2563 24.5171C25.471 23.5489 29.5258 20.9676 31.5 18.4998L31.5136 18.561ZM17.2514 21.2559C22.1315 21.2559 26.0875 17.467 26.0875 12.7932C26.0875 8.11946 22.1315 4.33061 17.2514 4.33061C12.3713 4.33061 8.41528 8.11946 8.41528 12.7932C8.41528 17.467 12.3713 21.2559 17.2514 21.2559Z"  fill-opacity="0.6"/>
</symbol>

<symbol viewBox="0 0 23 23" fill="none" xmlns="http://www.w3.org/2000/svg" id="instagram-icon">
<path fill-rule="evenodd" clip-rule="evenodd" d="M18.4764 6.08753C18.6248 5.86539 18.704 5.60422 18.704 5.33705C18.704 4.97878 18.5617 4.63519 18.3084 4.38185C18.0551 4.12852 17.7115 3.9862 17.3533 3.9862C17.0861 3.9862 16.825 4.06543 16.6028 4.21386C16.3807 4.36229 16.2076 4.57326 16.1054 4.82009C16.0031 5.06693 15.9764 5.33854 16.0285 5.60058C16.0806 5.86262 16.2093 6.10331 16.3982 6.29222C16.5871 6.48114 16.8277 6.60981 17.0898 6.66193C17.3518 6.71405 17.6234 6.68729 17.8702 6.58505C18.117 6.48281 18.3279 6.30968 18.4764 6.08753ZM16.1505 14.5565C16.7855 13.6061 17.1245 12.4886 17.1245 11.3455C17.1246 10.5865 16.9753 9.83483 16.6849 9.13352C16.3946 8.43222 15.9689 7.795 15.4322 7.25827C14.8955 6.72154 14.2584 6.29583 13.5571 6.00544C12.8559 5.71505 12.1043 5.56567 11.3453 5.56585C10.2023 5.56585 9.08495 5.90483 8.13457 6.53991C7.18419 7.17498 6.44345 8.07765 6.00604 9.13374C5.56863 10.1898 5.45417 11.3519 5.67716 12.4731C5.90015 13.5942 6.45057 14.6241 7.2588 15.4324C8.06703 16.2407 9.09678 16.7911 10.2178 17.0141C11.3389 17.2371 12.5009 17.1227 13.5569 16.6852C14.6129 16.2478 15.5155 15.507 16.1505 14.5565ZM14.4654 9.26063C14.8775 9.87783 15.0973 10.6034 15.097 11.3455H15.0998C15.0998 11.8384 15.0026 12.3265 14.8139 12.7818C14.6252 13.2371 14.3485 13.6508 13.9999 13.9991C13.6512 14.3474 13.2372 14.6236 12.7818 14.8118C12.3263 15.0001 11.8382 15.0967 11.3453 15.0962C10.6032 15.0962 9.87782 14.8761 9.26082 14.4637C8.64383 14.0514 8.16297 13.4653 7.87905 12.7797C7.59513 12.094 7.5209 11.3395 7.66578 10.6116C7.81065 9.88378 8.16811 9.21525 8.69293 8.69057C9.21775 8.1659 9.88638 7.80865 10.6142 7.66404C11.3421 7.51942 12.0965 7.59392 12.782 7.87811C13.4675 8.16231 14.0533 8.64343 14.4654 9.26063ZM22.5315 6.70442C22.5866 7.89949 22.599 8.28821 22.599 11.3455C22.599 14.4015 22.5853 14.7874 22.5315 15.9852C22.4778 17.1831 22.2848 18.0018 22.0091 18.7172C21.7198 19.4648 21.2776 20.1437 20.7108 20.7105C20.1441 21.2773 19.4652 21.7195 18.7178 22.0089C18.0011 22.2873 17.181 22.4762 15.986 22.5313C14.791 22.5864 14.401 22.6002 11.3453 22.6002C8.28963 22.6002 7.90371 22.5851 6.70597 22.5313C5.50824 22.4775 4.68954 22.2846 3.9742 22.0089C3.22674 21.7195 2.54791 21.2773 1.98115 20.7105C1.41439 20.1437 0.972191 19.4648 0.682844 18.7172C0.40443 18.0018 0.215599 17.1858 0.160467 15.9852C0.105335 14.7847 0.0915527 14.4028 0.0915527 11.3455C0.0915527 8.28821 0.106712 7.90225 0.160467 6.70442C0.21422 5.50658 0.407187 4.68919 0.682844 3.97242C0.972191 3.22489 1.41439 2.546 1.98115 1.9792C2.54791 1.41239 3.22674 0.970154 3.9742 0.680782C4.68954 0.402344 5.51237 0.213497 6.70597 0.158361C7.89957 0.103226 8.28825 0.0908203 11.3453 0.0908203C14.4024 0.0908203 14.7883 0.104603 15.986 0.158361C17.1838 0.21212 18.0011 0.405102 18.7178 0.680782C19.4652 0.970154 20.1441 1.41239 20.7108 1.9792C21.2776 2.546 21.7198 3.22489 22.0091 3.97242C22.2862 4.68919 22.4764 5.50934 22.5315 6.70442Z" fill="white"/>
</symbol>

<symbol viewBox="0 0 29 17" fill="none" xmlns="http://www.w3.org/2000/svg" id="vk-icon">
<path fill-rule="evenodd" clip-rule="evenodd" d="M25.0848 11.374C25.0848 11.374 27.3633 13.6403 27.9269 14.689C27.9379 14.7041 27.9465 14.7209 27.9523 14.7387C28.182 15.1261 28.2383 15.4298 28.1256 15.654C27.9354 16.0244 27.2914 16.2103 27.073 16.2259H23.0458C22.7654 16.2259 22.1821 16.1521 21.4719 15.6583C20.9294 15.2765 20.3897 14.6479 19.8669 14.0334C19.0863 13.1209 18.4113 12.3291 17.7279 12.3291C17.6416 12.3289 17.5559 12.3433 17.4743 12.3716C16.9571 12.5363 16.3005 13.2784 16.3005 15.2552C16.3005 15.874 15.8158 16.2259 15.4762 16.2259H13.6317C13.0032 16.2259 9.73132 16.0045 6.83 12.9237C3.27486 9.15172 0.0818542 1.58513 0.0508542 1.51843C-0.147828 1.02884 0.269264 0.762052 0.720173 0.762052H4.78681C5.33213 0.762052 5.50968 1.09412 5.63368 1.39213C5.77741 1.73413 6.31004 3.10213 7.18368 4.63901C8.59841 7.13945 9.46782 8.15694 10.1625 8.15694C10.293 8.15732 10.4213 8.12306 10.5345 8.0576C11.442 7.55524 11.2729 4.29133 11.2306 3.61868C11.2306 3.48813 11.2292 2.16128 10.7642 1.51985C10.4316 1.06006 9.86518 0.881256 9.52277 0.815977C9.61436 0.682583 9.80882 0.478234 10.0582 0.357611C10.6796 0.0454107 11.8027 0 12.9173 0H13.5359C14.7449 0.0170291 15.0577 0.095079 15.4973 0.207187C16.3822 0.420051 16.3991 0.997622 16.3216 2.96448C16.2991 3.52644 16.2751 4.15936 16.2751 4.90438C16.2751 5.06332 16.2681 5.24071 16.2681 5.42093C16.2413 6.4299 16.2061 7.5666 16.9135 8.03348C17.0052 8.09104 17.1111 8.12152 17.2192 8.12146C17.4644 8.12146 18.1986 8.12146 20.1896 4.68016C21.0632 3.16032 21.7396 1.368 21.7861 1.23319C21.8256 1.15798 21.9439 0.946534 22.0877 0.861389C22.1899 0.806605 22.3044 0.779238 22.4202 0.78192H27.2041C27.7254 0.78192 28.0791 0.861389 28.1482 1.06006C28.2637 1.3822 28.1256 2.36563 25.9415 5.34004C25.5737 5.8353 25.2511 6.26387 24.9678 6.63851C22.9881 9.25532 22.9881 9.38729 25.0848 11.374Z" fill="white"/>
</symbol>

<symbol  viewBox="0 0 18 29" fill="none" xmlns="http://www.w3.org/2000/svg" id="fb-icon">
<path fill-rule="evenodd" clip-rule="evenodd" d="M11.5613 7.88195V11.1843H16.8213L15.985 16.2743H11.5613V28.6364H5.63372V16.2743H0.818359V11.1843H5.63372V7.30375C5.63372 2.89028 8.4658 0.45459 12.7975 0.45459C14.2202 0.472439 15.6396 0.587005 17.0443 0.797371V5.12935H14.6526C12.2944 5.13194 11.5613 6.48884 11.5613 7.88195Z" fill="white"/>
</symbol>

<symbol viewBox="0 0 23 27" fill="none" xmlns="http://www.w3.org/2000/svg" id="tiktok-icon"> 
<path fill-rule="evenodd" clip-rule="evenodd" d="M21.7275 6.36966L22.2949 6.41179V11.8213L21.718 11.8861C20.3162 11.9946 18.9143 11.6779 17.6858 10.9753C17.1521 10.6806 16.6573 10.3168 16.2135 9.8928V18.5402C16.2154 20.1788 15.7448 21.7811 14.8612 23.1447C13.9776 24.5083 12.7206 25.5721 11.2492 26.2016C9.77773 26.8311 8.15781 26.998 6.59411 26.6813C5.03042 26.3646 3.59312 25.5784 2.46385 24.4222C1.33459 23.2659 0.564032 21.7915 0.249555 20.1852C-0.0649218 18.5789 0.0907967 16.9128 0.697029 15.3975C1.30326 13.8821 2.3328 12.5855 3.65555 11.6715C4.9783 10.7575 6.5349 10.2671 8.12865 10.2623C8.30204 10.2623 8.47702 10.2623 8.65041 10.2785L9.22577 10.3158V15.3914L8.5385 15.3072L8.41239 15.2893C8.32627 15.2754 8.23942 15.2668 8.1523 15.2634C7.30656 15.2634 6.49545 15.6088 5.89742 16.2236C5.29939 16.8385 4.96343 17.6724 4.96343 18.5419C4.96343 19.4114 5.29939 20.2452 5.89742 20.8601C6.49545 21.4749 7.30656 21.8203 8.1523 21.8203C9.02277 21.8157 9.86005 21.4763 10.4994 20.869C10.8096 20.5807 11.0582 20.2293 11.2294 19.8371C11.4006 19.4448 11.4907 19.0203 11.4941 18.5905L11.5319 0.36377H16.2056L16.264 0.929351C16.4084 2.35134 17.035 3.67573 18.0339 4.67042C19.0329 5.66511 20.3404 6.26665 21.7275 6.36966Z" fill="white"/>
</symbol>


<symbol viewBox="0 0 17 17" fill="none" xmlns="http://www.w3.org/2000/svg" id="button-arrow-icon">
<path d="M3.3813 0.467054C3.06392 0.474457 2.76218 0.606369 2.54122 0.834313C2.32026 1.06226 2.1978 1.36795 2.20026 1.6854C2.20273 2.00286 2.32994 2.30661 2.55442 2.53109C2.7789 2.75556 3.08266 2.88276 3.40011 2.88523L12.5153 2.81682L0.825458 14.5067C0.598676 14.7334 0.471271 15.041 0.471271 15.3617C0.471271 15.6825 0.598676 15.99 0.825458 16.2168C1.05224 16.4436 1.35982 16.571 1.68054 16.571C2.00126 16.571 2.30884 16.4436 2.53562 16.2168L14.2203 4.53212L14.1536 13.6405C14.161 13.9546 14.2904 14.2536 14.5144 14.474C14.7383 14.6944 15.0393 14.819 15.3536 14.8213C15.6678 14.8237 15.9706 14.7036 16.1979 14.4865C16.4251 14.2694 16.5589 13.9724 16.5709 13.6584L16.659 1.90359C16.6604 1.70333 16.622 1.50478 16.546 1.31949C16.47 1.1342 16.3579 0.965857 16.2163 0.824244C16.0747 0.68263 15.9064 0.570571 15.7211 0.494573C15.5358 0.418576 15.3372 0.380156 15.137 0.381546L3.3813 0.468765L3.3813 0.467054Z" fill="white"/>
</symbol>


<symbol  viewBox="0 0 67 69" fill="none" xmlns="http://www.w3.org/2000/svg" id="button-delivery-icon">
<path d="M50.2392 14.9597C49.097 16.0488 48.7536 17.1498 49.1709 18.6194C50.5015 18.969 51.5316 18.755 52.5307 17.6849C54.7269 15.3283 57.1042 13.1405 59.3385 10.8149L59.3624 10.7911C60.9004 9.19071 62.2 7.39057 63.7022 5.7664C63.6617 5.81158 63.6879 6.06603 63.6855 6.12548C63.614 7.96842 63.6474 9.8066 63.6474 11.6495V18.6884H67V0.760742H49.1161V4.19218H61.1078C57.2807 8.00647 53.8136 11.5425 50.2392 14.9597Z" fill="#253582"/>
<path fill-rule="evenodd" clip-rule="evenodd" d="M66.9357 22.6321C66.9621 23.0459 66.9886 23.4615 66.9886 23.8781C66.9899 25.4421 66.9917 27.006 66.9936 28.5698C67.0023 35.8678 67.011 43.164 66.954 50.4571C66.9088 51.4008 66.5351 52.2989 65.8978 52.9959C61.216 57.7966 56.4582 62.5419 51.6818 67.2594C51.2413 67.6956 50.5103 68.0788 49.9129 68.0788C33.5383 68.0926 17.1637 68.0995 0.789096 68.0995C0.562899 68.072 0.339251 68.0264 0.120271 67.9634C0.110605 67.7729 0.0978228 67.5802 0.0849381 67.386C0.057858 66.9779 0.0303264 66.563 0.0303264 66.147C0.0487767 50.3987 0.0395527 34.6503 0.00265216 18.902C-0.0177556 18.3621 0.0798083 17.8242 0.288534 17.3259C0.49726 16.8276 0.812121 16.3809 1.21115 16.017C3.40602 13.8464 5.58776 11.6632 7.76961 9.47982C10.2509 6.99683 12.7323 4.51372 15.2333 2.0489C15.7131 1.57345 16.4972 1.13723 17.143 1.13723C24.1768 1.09367 31.2107 1.09879 38.2446 1.10391C40.5258 1.10557 42.807 1.10723 45.0882 1.10723C45.3953 1.13442 45.6999 1.18535 45.9992 1.25956V4.46077H44.1334C42.1132 4.46077 40.0932 4.46185 38.0733 4.46294C31.7615 4.46633 25.4503 4.46972 19.1379 4.44C18.6294 4.41287 18.1213 4.49995 17.6508 4.69483C17.1803 4.88972 16.7594 5.18749 16.4188 5.56631C14.1924 7.8556 11.9278 10.1078 9.66495 12.3582C8.68601 13.3317 7.70741 14.305 6.73239 15.2807C6.58739 15.4258 6.45498 15.5835 6.26609 15.8085C6.16356 15.9307 6.04438 16.0726 5.89751 16.2432H45.9692C45.9692 16.2432 46.2782 21.8309 51.6496 21.9924H51.8271V61.8241L52.2723 62.0318C54.105 60.1469 55.9439 58.2643 57.7889 56.3841C58.3709 55.7903 59.0229 55.2252 59.6749 54.6602C61.154 53.3783 62.6329 52.0966 63.294 50.4802C63.9955 48.7664 63.8649 46.7009 63.7351 44.6478C63.684 43.8391 63.633 43.0324 63.633 42.2498C63.6422 38.2002 63.6392 34.1485 63.6361 30.0962C63.6345 28.0698 63.633 26.0431 63.633 24.0165V22.0455H66.901C66.9106 22.2406 66.9231 22.4362 66.9357 22.6321ZM4.43532 26.5207V34.2757H6.40488C7.15354 34.2973 7.90243 34.2416 8.63967 34.1095C9.09843 34.0067 9.53306 33.8163 9.91966 33.5486C10.4019 33.2171 10.7872 32.763 11.0359 32.2331C11.2869 31.6556 11.4165 31.0326 11.4165 30.4028C11.4165 29.7731 11.2869 29.15 11.0359 28.5726C10.7866 28.043 10.4014 27.589 9.91966 27.257C9.52253 26.9845 9.07594 26.7924 8.60508 26.6915C7.76086 26.5516 6.90502 26.4944 6.04971 26.5207H4.43532ZM6.88228 32.5377H6.52712V28.2633H6.88228C7.71024 28.2633 8.31679 28.4387 8.69733 28.7826C9.07786 29.1265 9.26929 29.6781 9.26929 30.412C9.26929 31.146 9.07786 31.6884 8.69733 32.0277C8.31679 32.3669 7.71024 32.5377 6.88228 32.5377ZM18.0563 32.7131C18.2082 32.3676 18.2868 31.9943 18.287 31.6168C18.2866 31.2344 18.2064 30.8563 18.0517 30.5067C17.7395 29.7965 17.1591 29.2389 16.4373 28.9557C15.6928 28.6824 14.8755 28.6824 14.131 28.9557C13.7732 29.0924 13.4474 29.3014 13.1739 29.5696C12.8967 29.8316 12.6767 30.148 12.5274 30.4991C12.3782 30.8502 12.3031 31.2284 12.3068 31.6099C12.3047 31.9895 12.3806 32.3654 12.5297 32.7144C12.6789 33.0634 12.8982 33.378 13.1739 33.6386C13.4504 33.9082 13.7772 34.1208 14.1356 34.2641C14.8741 34.5447 15.6897 34.5447 16.4281 34.2641C16.7903 34.1191 17.1215 33.906 17.4036 33.6363C17.6799 33.3747 17.9018 33.0609 18.0563 32.7131ZM16.1098 30.6729C16.3235 30.9394 16.4311 31.2756 16.4119 31.6168C16.4319 31.9556 16.3268 32.2898 16.1167 32.5562C16.0095 32.6647 15.8818 32.7509 15.7411 32.8096C15.6003 32.8684 15.4494 32.8987 15.2969 32.8987C15.1444 32.8987 14.9934 32.8684 14.8526 32.8096C14.7119 32.7509 14.5842 32.6647 14.477 32.5562C14.2841 32.2801 14.1806 31.9514 14.1806 31.6145C14.1806 31.2777 14.2841 30.9489 14.477 30.6729C14.5841 30.5654 14.7113 30.4801 14.8514 30.4219C14.9915 30.3638 15.1417 30.3338 15.2934 30.3338C15.4451 30.3338 15.5953 30.3638 15.7354 30.4219C15.8755 30.4801 16.0027 30.5654 16.1098 30.6729ZM23.2085 30.6844C23.051 30.5394 22.8721 30.4195 22.6781 30.329C22.5102 30.2552 22.3287 30.2174 22.1453 30.2182C21.9784 30.2107 21.8119 30.2401 21.6576 30.3043C21.5034 30.3685 21.3652 30.466 21.2528 30.5898C21.02 30.8715 20.9022 31.231 20.923 31.5961C20.9041 31.9548 21.0276 32.3066 21.2666 32.5746C21.3856 32.6978 21.5294 32.7942 21.6884 32.8575C21.8475 32.9208 22.0182 32.9495 22.1892 32.9416C22.3745 32.9426 22.5579 32.9032 22.7265 32.8262C22.9071 32.7405 23.0698 32.6215 23.2062 32.4754V34.1118C22.9929 34.2331 22.7651 34.327 22.5282 34.391C22.3024 34.4507 22.0698 34.481 21.8363 34.4811C21.4666 34.496 21.0979 34.4332 20.7539 34.2969C20.4099 34.1605 20.0983 33.9536 19.8391 33.6894C19.5803 33.4112 19.3794 33.0843 19.2479 32.7277C19.1165 32.3711 19.0571 31.9919 19.0734 31.6122C19.0592 31.2352 19.1211 30.8591 19.2554 30.5066C19.3898 30.1541 19.5938 29.8322 19.8552 29.5604C20.1157 29.2963 20.4281 29.0892 20.7727 28.9521C21.1172 28.815 21.4865 28.751 21.8571 28.7641C22.1045 28.7609 22.3515 28.7873 22.5928 28.8426C22.8111 28.8956 23.0203 28.9812 23.2132 29.0965L23.2085 30.6844ZM29.8505 31.6584V28.9257H28.017V31.7807C28.0428 32.1222 27.9622 32.4632 27.7864 32.757C27.6988 32.8609 27.5874 32.942 27.4617 32.9934C27.336 33.0449 27.1997 33.0651 27.0645 33.0524C26.9292 33.065 26.7929 33.0442 26.6675 32.9919C26.542 32.9396 26.4313 32.8574 26.3449 32.7524C26.1699 32.46 26.0894 32.1206 26.1143 31.7807V28.9257H24.3246V31.6584C24.3072 32.1122 24.3553 32.5662 24.4676 33.0063C24.5623 33.3002 24.7297 33.5654 24.9542 33.7771C25.2098 34.0191 25.5164 34.2005 25.8514 34.308C26.6617 34.5387 27.5203 34.5387 28.3306 34.308C28.6635 34.2032 28.9669 34.0213 29.2163 33.7771C29.4385 33.5612 29.6061 33.2954 29.7052 33.0016C29.8199 32.5636 29.8688 32.1109 29.8505 31.6584ZM11.3887 47.2928V44.3732C11.4153 44.0445 11.3565 43.7145 11.218 43.4153C11.1503 43.3233 11.0598 43.2505 10.9555 43.204C10.8512 43.1575 10.7367 43.1388 10.623 43.1499C10.478 43.1356 10.332 43.1626 10.2017 43.228C10.0715 43.2934 9.96249 43.3943 9.88731 43.5192C9.74893 43.7639 9.67974 44.2662 9.67974 45.0263V47.2928H7.86008V44.3732C7.88796 44.043 7.82912 43.7112 7.68942 43.4107C7.62183 43.3194 7.5316 43.2473 7.42766 43.2016C7.32371 43.1558 7.20963 43.138 7.0967 43.1499C6.95163 43.1358 6.80551 43.1625 6.67474 43.2269C6.54397 43.2913 6.43373 43.391 6.35639 43.5146C6.2157 43.7454 6.14421 44.2601 6.14421 45.0263V47.2928H4.31302V41.9428H6.15805V42.866C6.3426 42.5293 6.60715 42.2431 6.92834 42.0328C7.23985 41.848 7.59726 41.7552 7.95925 41.7651C8.33076 41.7495 8.6994 41.8365 9.02475 42.0167C9.30679 42.1891 9.51785 42.4568 9.61978 42.7714C9.80341 42.4564 10.0667 42.1953 10.3832 42.0144C10.7089 41.842 11.0734 41.7561 11.4417 41.7651C11.7314 41.7587 12.019 41.8138 12.2858 41.9267C12.5261 42.0326 12.7345 42.1997 12.8901 42.4114C13.0243 42.5869 13.1195 42.7891 13.1691 43.0045C13.2351 43.3676 13.2622 43.7366 13.2499 44.1054V47.2836L11.3887 47.2928ZM16.0682 44.9941H20.1342V44.9017C20.1342 43.9308 19.8782 43.1661 19.3662 42.6076C19.0973 42.3257 18.7708 42.1052 18.409 41.9611C18.0472 41.8169 17.6587 41.7524 17.2698 41.7721C16.8766 41.7591 16.4848 41.8256 16.1179 41.9675C15.7509 42.1095 15.4164 42.324 15.1342 42.5983C14.8565 42.8666 14.638 43.1899 14.4926 43.5476C14.3473 43.9054 14.2783 44.2896 14.2901 44.6755C14.2747 45.0575 14.3422 45.4383 14.4879 45.7917C14.6336 46.1451 14.8541 46.4628 15.1342 46.7228C15.6969 47.2398 16.4441 47.4982 17.3759 47.4982C17.9222 47.5152 18.4646 47.4013 18.958 47.1659C19.3634 46.9701 19.6833 46.6327 19.8574 46.2173L18.4391 45.6449C18.3449 45.8486 18.1881 46.0168 17.9916 46.125C17.7687 46.2395 17.5202 46.2951 17.2698 46.2865C17.1071 46.296 16.9443 46.2709 16.792 46.2128C16.6398 46.1547 16.5016 46.065 16.3865 45.9496C16.1627 45.6833 16.0488 45.3415 16.0682 44.9941ZM17.9271 43.1984C18.1283 43.3915 18.2514 43.6519 18.273 43.9301H16.1074C16.1419 43.645 16.2701 43.3795 16.4718 43.1753C16.6735 42.9995 16.9358 42.9093 17.2029 42.9238C17.471 42.9162 17.7313 43.0149 17.9271 43.1984ZM21.2135 47.2928V41.9429H22.9386V43.0346C23.144 42.6496 23.442 42.322 23.8058 42.0813C24.1637 41.873 24.5727 41.7691 24.9866 41.7813C25.302 41.7763 25.6153 41.8327 25.9091 41.9475C26.1656 42.0487 26.3919 42.214 26.5664 42.4276C26.7137 42.6214 26.8168 42.8451 26.8685 43.083C26.939 43.4635 26.9692 43.8503 26.9585 44.237V47.2998H25.0696V44.4194C25.0921 44.0977 25.0191 43.7765 24.8598 43.4962C24.7812 43.3959 24.6789 43.3167 24.5622 43.266C24.4454 43.2152 24.3178 43.1943 24.1909 43.2053C24.0221 43.1933 23.8532 43.2273 23.7021 43.3037C23.551 43.3801 23.4235 43.4961 23.333 43.6393C23.1531 43.9301 23.0632 44.3986 23.0632 45.0495V47.2951L21.2135 47.2928ZM28.5799 43.2768V47.2928H30.4388V43.2768H31.2367V41.9428H30.4388V40.348H28.5799V41.9428H27.7819V43.2768H28.5799ZM10.0719 52.1004V60.31H8.3353V59.4422C8.12896 59.7684 7.85238 60.0444 7.52579 60.25C7.22258 60.4282 6.87645 60.5199 6.52487 60.5154C6.18651 60.5298 5.84928 60.4673 5.53851 60.3326C5.22775 60.1979 4.95152 59.9945 4.73058 59.7376C4.28777 59.2183 4.06406 58.519 4.06406 57.6396C4.02967 56.8942 4.26556 56.1614 4.72827 55.5763C4.93843 55.3218 5.20397 55.1188 5.50456 54.9828C5.80516 54.8468 6.13286 54.7814 6.4626 54.7915C6.84482 54.7756 7.22466 54.8591 7.565 55.0339C7.88547 55.2353 8.14781 55.5169 8.32607 55.8509C8.30242 55.708 8.28626 55.5639 8.27764 55.4193C8.27764 55.3415 8.2739 55.261 8.27001 55.1775C8.26583 55.0878 8.2615 54.9946 8.2615 54.8977V52.1004H10.0719ZM8.39988 57.6396C8.4194 57.2807 8.30052 56.9279 8.06777 56.6541C7.82475 56.4231 7.50236 56.2943 7.16717 56.2943C6.83198 56.2943 6.50959 56.4231 6.26656 56.6541C6.05482 56.9394 5.94049 57.2854 5.94049 57.6408C5.94049 57.9962 6.05482 58.3421 6.26656 58.6275C6.51024 58.8581 6.83291 58.9866 7.16832 58.9866C7.50373 58.9866 7.8264 58.8581 8.07008 58.6275C8.30427 58.3537 8.42258 57.9993 8.39988 57.6396ZM12.9455 58.0112H17.0115V57.9189C17.0115 56.948 16.7555 56.1833 16.2435 55.6247C15.9745 55.3429 15.6481 55.1224 15.2863 54.9782C14.9245 54.834 14.536 54.7696 14.1471 54.7892C13.7539 54.7762 13.3621 54.8427 12.9952 54.9847C12.6282 55.1267 12.2936 55.3412 12.0114 55.6155C11.7338 55.8837 11.5153 56.2071 11.3699 56.5648C11.2246 56.9225 11.1556 57.3067 11.1673 57.6927C11.152 58.0747 11.2195 58.4555 11.3652 58.8089C11.5109 59.1623 11.7314 59.4799 12.0114 59.7399C12.5742 60.2569 13.3214 60.5154 14.2531 60.5154C14.7994 60.5324 15.3419 60.4184 15.8353 60.1831C16.2407 59.9873 16.5606 59.6499 16.7347 59.2345L15.3163 58.6621C15.2222 58.8657 15.0654 59.034 14.8689 59.1421C14.646 59.2566 14.3975 59.3122 14.1471 59.3037C13.9844 59.3132 13.8216 59.288 13.6693 59.23C13.5171 59.1719 13.3788 59.0822 13.2638 58.9667C13.0399 58.7004 12.9261 58.3587 12.9455 58.0112ZM14.8067 56.2156C15.0065 56.4097 15.1293 56.6695 15.1526 56.9472H12.987C13.0215 56.6622 13.1497 56.3967 13.3514 56.1925C13.5531 56.0167 13.8154 55.9265 14.0825 55.9409C14.3506 55.9333 14.6109 56.032 14.8067 56.2156ZM18.144 60.31V52.1004H20.0328V60.31H18.144ZM21.5063 52.8948C21.4539 53.0203 21.428 53.1553 21.4303 53.2913C21.4285 53.4292 21.4548 53.566 21.5075 53.6933C21.5603 53.8207 21.6384 53.936 21.7371 54.0322C21.8304 54.1325 21.9436 54.2122 22.0695 54.2663C22.1954 54.3203 22.3312 54.3475 22.4682 54.3461C22.6057 54.3485 22.7422 54.3225 22.8692 54.2697C22.9962 54.2169 23.1109 54.1384 23.2062 54.0391C23.3049 53.9416 23.3828 53.825 23.4351 53.6965C23.4874 53.5679 23.5131 53.4301 23.5106 53.2913C23.5135 53.1546 23.4884 53.0188 23.4368 52.8922C23.3852 52.7655 23.3083 52.6508 23.2108 52.5551C23.1133 52.4582 22.9973 52.3821 22.8697 52.3313C22.742 52.2805 22.6055 52.2561 22.4682 52.2596C22.3318 52.2572 22.1963 52.2828 22.0702 52.3348C21.944 52.3868 21.8299 52.4641 21.7348 52.562C21.6365 52.6559 21.5587 52.7692 21.5063 52.8948ZM21.5249 54.96V60.31H23.4137V54.96H21.5249ZM26.4696 60.31L24.0664 54.96H26.0775L26.9862 57.3234C26.9935 57.338 27.0007 57.3553 27.0092 57.3753C27.0141 57.3871 27.0194 57.3998 27.0254 57.4134C27.1209 57.6546 27.1934 57.9042 27.2422 58.1589C27.2842 57.9211 27.3531 57.6888 27.4474 57.4665C27.4634 57.4259 27.4757 57.3917 27.4855 57.3644C27.4913 57.3483 27.4962 57.3346 27.5005 57.3234L28.423 54.96H30.3856L27.9571 60.31H26.4696ZM32.4451 58.0112H36.5088V57.9189C36.5088 56.948 36.2528 56.1833 35.7408 55.6247C35.4722 55.3431 35.1461 55.1227 34.7848 54.9785C34.4234 54.8343 34.0352 54.7698 33.6467 54.7892C33.2531 54.7761 32.861 54.8424 32.4936 54.9844C32.1263 55.1264 31.7913 55.341 31.5088 55.6155C31.2311 55.8837 31.0126 56.2071 30.8673 56.5648C30.7219 56.9225 30.6529 57.3067 30.6647 57.6927C30.6493 58.0747 30.7168 58.4555 30.8625 58.8089C31.0082 59.1623 31.2287 59.4799 31.5088 59.7399C32.0715 60.2569 32.8187 60.5154 33.7505 60.5154C34.2975 60.5324 34.8407 60.4184 35.3349 60.183C35.7395 59.9862 36.0591 59.6492 36.2343 59.2345L34.816 58.6621C34.7211 58.8653 34.5645 59.0333 34.3686 59.1421C34.1455 59.2563 33.8971 59.3119 33.6467 59.3037C33.4836 59.3135 33.3204 59.2885 33.1677 59.2304C33.015 59.1723 32.8764 59.0825 32.7611 58.9667C32.5381 58.7001 32.4251 58.3583 32.4451 58.0112ZM34.2994 56.2156C34.5 56.4093 34.6237 56.6692 34.6476 56.9472L32.4866 56.9449C32.5203 56.6601 32.6477 56.3946 32.8487 56.1902C33.0507 56.0166 33.3116 55.9274 33.5775 55.9409C33.845 55.9332 34.1046 56.032 34.2994 56.2156ZM37.5996 60.31V54.96H39.3778V56.2202C39.5235 55.8108 39.7846 55.4525 40.1296 55.1885C40.4667 54.9521 40.8713 54.8314 41.2828 54.8446H41.5134C41.5681 54.8446 41.6254 54.8522 41.6833 54.8599C41.7035 54.8626 41.7237 54.8653 41.744 54.8677L41.7343 54.96H43.5776L44.3248 56.8941C44.3871 57.0557 44.4401 57.208 44.484 57.3557C44.5231 57.4838 44.5547 57.614 44.5785 57.7458C44.6004 57.6123 44.6312 57.4804 44.6708 57.3511C44.7123 57.2149 44.763 57.0649 44.8276 56.9034L45.5841 54.9692H47.5997L44.2418 62.6711H42.1408L43.6422 59.4952L41.6898 55.3848L41.5641 56.5849C41.456 56.5473 41.3449 56.5187 41.232 56.4995C41.1267 56.4834 41.0203 56.4749 40.9138 56.4741C40.717 56.4621 40.52 56.4936 40.3367 56.5661C40.1534 56.6387 39.9882 56.7507 39.8529 56.8941C39.5845 57.2325 39.4514 57.6586 39.4792 58.0897V60.3031L37.5996 60.31Z" fill="#253582"/>
</symbol>


<symbol width="74" height="73" viewBox="0 0 74 73" fill="none" xmlns="http://www.w3.org/2000/svg" id="button-innovations-icon">
<path d="M39.1829 0.757812C40.5065 0.996815 41.8612 1.13718 43.1499 1.49189C53.3972 4.35993 59.9028 10.8358 61.9483 21.0806C63.7203 29.956 60.9081 37.6287 54.2221 43.8561C51.5302 46.3618 49.7738 49.228 49.4322 52.8699C49.4115 52.9976 49.3843 53.1242 49.3507 53.2493H39.2334V43.4729C40.3687 43.3155 41.5099 43.2586 42.5967 42.9892C44.8794 42.429 46.9135 41.1581 48.392 39.3685C49.8706 37.5788 50.7132 35.3676 50.7927 33.0687C50.8373 32.0292 50.8257 30.9822 50.7927 29.9446C50.7655 28.7724 49.9834 27.8201 48.8247 27.7746C46.3619 27.6798 43.8738 27.5527 41.5429 28.5865C40.7666 28.9355 40.0116 29.3585 39.214 29.7625C39.0801 28.9165 39.1635 28.2223 39.9126 27.5773C41.8321 25.9252 43.1285 23.8785 43.5555 21.3709C44.1591 17.8275 43.2333 14.7224 40.7297 12.0858C40.0543 11.3764 39.344 10.6973 38.6278 10.0239C37.5779 9.03566 36.3804 9.02617 35.3576 10.0239C34.3872 10.9723 33.3508 11.8942 32.5066 12.9527C29.2344 17.0479 29.5023 22.7575 33.0888 26.6251C33.4149 26.976 33.7623 27.3061 34.1039 27.6418C34.9462 28.4708 34.9481 28.4746 34.756 29.6506C33.5682 29.1555 32.3882 28.5675 31.1422 28.1654C29.2014 27.5394 27.1675 27.7025 25.1646 27.7746C24.6557 27.7925 24.1726 27.9981 23.8125 28.35C23.4525 28.702 23.2421 29.1741 23.2238 29.6715C23.1384 31.8889 23.0297 34.1177 23.8255 36.2687C24.5728 38.2953 25.9265 40.0554 27.7107 41.3202C29.4949 42.585 31.6271 43.2961 33.8302 43.361C34.1194 43.361 34.4124 43.361 34.756 43.361V53.2607H24.6639C24.495 52.3748 24.3805 51.4625 24.1399 50.5842C23.485 48.143 22.1045 45.9463 20.1729 44.2715C15.7091 40.3583 12.8755 35.5289 11.9071 29.7568C10.7213 22.6892 12.3476 16.2209 16.8037 10.5152C20.6212 5.62892 25.675 2.57499 31.8215 1.26996C32.8074 1.06131 33.8089 0.93232 34.8045 0.767294L39.1829 0.757812Z" fill="#253582"/>
<path d="M73.9999 26.219C73.4704 27.5054 72.5616 28.0225 71.2542 27.9377C70.0354 27.8611 68.8069 27.9273 67.5843 27.919C66.2692 27.919 65.3373 26.9201 65.3507 25.5613C65.3642 24.248 66.2961 23.2863 67.5843 23.2863C68.8089 23.2863 70.0354 23.3463 71.2542 23.2677C72.5635 23.1829 73.4724 23.6979 73.9999 24.9864V26.219Z" fill="#253582"/>
<path d="M49.9744 57.0107C49.9073 58.2369 49.9744 59.4378 49.7486 60.5824C49.2666 62.928 47.1166 64.5072 44.6148 64.5111C39.5175 64.5111 34.4216 64.5111 29.3271 64.5111C28.6294 64.5126 27.9382 64.3825 27.2934 64.1281C26.6486 63.8737 26.063 63.5001 25.5703 63.0289C25.0776 62.5577 24.6875 61.9981 24.4225 61.3824C24.1576 60.7668 24.0229 60.1072 24.0264 59.4417C24.0264 58.6482 24.0264 57.8527 24.0264 57.0107H49.9744Z" fill="#253582"/>
<path d="M28.8318 69.1992H45.1687C45.1171 69.5842 45.0363 69.9659 44.9268 70.3421C44.645 71.0951 44.0871 71.7527 43.3341 72.2195C42.581 72.6863 41.6719 72.938 40.7384 72.9382C38.1604 72.9466 35.5823 72.9584 33.0202 72.9382C30.7396 72.913 28.7862 71.1812 28.8318 69.1992Z" fill="#253582"/>
<path d="M37.0055 14.8213C40.2156 17.3281 40.1927 21.9532 36.9921 24.1968C33.7973 21.8225 33.7973 17.2547 37.0055 14.8213Z" fill="#253582"/>
<path d="M34.5401 39.1808C29.9825 39.4624 26.6142 36.1736 26.9296 31.7985C30.7163 31.0422 35.1544 34.6227 34.5401 39.1808Z" fill="#253582"/>
<path d="M47.0572 31.7594C47.4949 36.1917 43.5636 39.6508 39.4967 39.1492C38.7528 35.351 42.5115 31.1334 47.0572 31.7594Z" fill="#253582"/>
<path d="M72.0758 12.2931C72.094 12.6703 72.0025 13.045 71.8112 13.3767C71.62 13.7083 71.3363 13.9843 70.9909 14.1746C69.6326 14.9505 68.2641 15.707 66.8689 16.4169C66.3346 16.6999 65.7031 16.7708 65.1133 16.6142C64.5235 16.4576 64.0238 16.0863 63.7241 15.5819C63.4243 15.0775 63.3491 14.4813 63.515 13.9246C63.6809 13.3678 64.0743 12.8961 64.6086 12.6131C65.9463 11.8528 67.2922 11.1021 68.6669 10.4077C69.0154 10.2238 69.4087 10.1291 69.8079 10.1329C70.2072 10.1368 70.5984 10.239 70.9429 10.4295C71.2873 10.62 71.5731 10.8922 71.7718 11.2191C71.9705 11.546 72.0753 11.9162 72.0758 12.2931Z" fill="#253582"/>
<path d="M4.498 42.0099C3.22713 42.0196 2.34287 41.4114 2.0303 40.4552C1.87937 40.0137 1.88619 39.5375 2.04968 39.0999C2.21317 38.6624 2.52427 38.2878 2.93512 38.0337C4.352 37.2078 5.79149 36.4149 7.2536 35.6725C7.76533 35.432 8.354 35.3821 8.90288 35.5325C9.45176 35.683 9.92078 36.0229 10.2169 36.4848C10.8482 37.4565 10.6282 38.7819 9.61848 39.3999C8.17899 40.2706 6.66546 41.0479 5.16839 41.8408C4.95597 41.9308 4.72961 41.9879 4.498 42.0099Z" fill="#253582"/>
<path d="M71.8927 39.7912C71.9068 41.4047 70.1757 42.5146 68.6683 41.7773C67.2194 41.067 65.8148 40.2641 64.4364 39.438C63.9563 39.1388 63.6158 38.6732 63.4862 38.1389C63.3566 37.6046 63.448 37.043 63.7411 36.5717C64.3074 35.6067 65.5709 35.1473 66.6007 35.6588C68.1204 36.4019 69.5945 37.2274 71.016 38.1313C71.5098 38.4497 71.7314 39.1542 72.0781 39.6754L71.8927 39.7912Z" fill="#253582"/>
<path d="M10.571 14.5173C10.5763 14.8875 10.4798 15.2526 10.2909 15.5774C10.102 15.9022 9.82705 16.1756 9.49273 16.3712C9.1584 16.5668 8.77601 16.6779 8.38259 16.6937C7.98918 16.7096 7.59806 16.6297 7.24716 16.4617C5.7921 15.7536 4.38026 14.9623 2.98489 14.1536C2.48822 13.8615 2.1314 13.3997 1.98939 12.8653C1.84738 12.331 1.93126 11.7657 2.22341 11.2883C2.79761 10.2958 4.11683 9.82181 5.19938 10.3539C6.71824 11.1006 8.198 11.9268 9.65512 12.778C10.2972 13.1514 10.5812 13.7918 10.571 14.5173Z" fill="#253582"/>
<path d="M4.25302 27.9392C3.52858 27.9392 2.80412 27.9537 2.07968 27.9392C1.52017 27.9137 0.991432 27.6569 0.603896 27.2223C0.216359 26.7876 0 26.2089 0 25.6068C0 25.0047 0.216359 24.4259 0.603896 23.9913C0.991432 23.5567 1.52017 23.2998 2.07968 23.2744C3.57505 23.2536 5.07172 23.2536 6.56967 23.2744C7.12918 23.2998 7.65792 23.5567 8.04546 23.9913C8.43299 24.4259 8.64935 25.0047 8.64935 25.6068C8.64935 26.2089 8.43299 26.7876 8.04546 27.2223C7.65792 27.6569 7.12918 27.9137 6.56967 27.9392C5.79874 27.9558 5.02589 27.9392 4.25302 27.9392Z" fill="#253582"/>
</symbol>


<symbol width="74" height="73" viewBox="0 0 74 73" fill="none" xmlns="http://www.w3.org/2000/svg" id="button-seo-icon">
<path d="M0 11.4512C0.313415 11.4702 0.624888 11.5026 0.936368 11.5026C14.3087 11.5026 27.6804 11.5026 41.0515 11.5026H42.0188V14.4674C33.6186 12.9307 26.3172 14.9288 20.4339 21.0967C16.1776 25.5562 14.2797 30.9538 14.5196 37.0549C14.6509 40.2954 15.5351 43.4628 17.1043 46.3134C18.6401 49.1599 20.7911 51.6396 23.4055 53.5775C26.0267 55.5399 29.0591 56.9012 32.2817 57.5623C35.5165 58.2373 38.7512 58.1534 42.0247 57.4804V60.4146C41.7712 60.4337 41.5178 60.4699 41.2663 60.4699C27.7507 60.4699 14.2346 60.4699 0.717751 60.4699C0.479788 60.4699 0.241822 60.4261 0.00192474 60.4032L0 11.4512Z" fill="#253582"/>
<path d="M0.00580403 62.252C0.320849 62.252 0.63396 62.2729 0.947072 62.2729H41.9899C42.0034 62.5815 42.0247 62.833 42.0247 63.0845C42.0247 64.8892 42.0247 66.6933 42.0247 68.4968C42.0247 70.8077 41.153 72.0346 38.9457 72.8461C38.909 72.8614 38.8839 72.9128 38.853 72.9471H3.1891C2.43082 72.7343 1.74006 72.3346 1.18206 71.7856C0.624066 71.2366 0.217239 70.5565 0 69.8094L0.00580403 62.252Z" fill="#253582"/>
<path d="M74 64.0348H67.605V8.83442C69.7429 9.48128 71.8882 9.56119 74 8.77734V64.0348Z" fill="#253582"/>
<path d="M0 3.97193C0.537142 2.41021 1.44719 1.23892 3.12238 0.848495C3.4523 0.780872 3.78859 0.750103 4.12517 0.756744C15.3768 0.756744 26.6285 0.756744 37.8801 0.756744C40.0963 0.756744 41.8411 2.31846 41.9744 4.54195C42.0749 6.19152 41.9937 7.84889 41.9937 9.63901H0.940964C0.627953 9.63901 0.313011 9.65658 0 9.66829V3.97193Z" fill="#253582"/>
<path d="M67.605 72.9475V65.8174H74V72.9475H67.605Z" fill="#253582"/>
<path d="M27.4075 34.623C27.4075 32.2795 27.7875 30.0253 28.331 27.7912C28.3652 27.7175 28.4177 27.6531 28.484 27.6035C28.5503 27.5538 28.6282 27.5206 28.711 27.5067C31.0046 27.4885 33.3 27.4939 35.6296 27.4939V34.623H27.4075Z" fill="#253582"/>
<path d="M27.4075 37.2969H35.6296V44.3465C35.5538 44.3833 35.4724 44.4085 35.3884 44.4212C33.208 44.4212 31.02 44.4339 28.8472 44.4212C28.6573 44.4212 28.3648 44.2573 28.3306 44.1225C27.7779 41.8898 27.4018 39.6407 27.4075 37.2969Z" fill="#253582"/>
<path d="M38.3701 34.623V27.4932H45.5357C46.203 29.7892 46.4581 32.1677 46.5923 34.623H38.3701Z" fill="#253582"/>
<path d="M46.5923 37.2969C46.2448 39.7339 45.9084 42.0813 45.5739 44.4268H38.3701V37.2969H46.5923Z" fill="#253582"/>
<path d="M25.5804 27.4946C25.2393 29.9199 24.9125 32.2451 24.5775 34.623H16.4446C16.6212 33.6442 16.7004 32.6781 16.9806 31.7611C17.3866 30.4584 17.9124 29.1903 18.422 27.9167C18.491 27.7457 18.7468 27.5146 18.9194 27.5128C21.1384 27.4855 23.3634 27.4946 25.5804 27.4946Z" fill="#253582"/>
<path d="M25.2222 44.9571C23.2265 44.9571 21.2325 44.9571 19.2404 44.9462C19.1559 44.9404 19.0738 44.9157 19.0002 44.8741C18.9266 44.8325 18.8635 44.775 18.8155 44.7058C17.757 42.5543 17.1399 40.2163 17 37.8271H24.3025C24.6097 40.2111 24.9077 42.5368 25.2222 44.9571Z" fill="#253582"/>
<path d="M48.4199 44.4261C48.731 42.0157 49.031 39.6891 49.3403 37.2969H56.6422C56.5094 39.6664 55.9045 41.9865 54.8622 44.1236C54.8124 44.2034 54.7449 44.2709 54.6649 44.3211C54.5849 44.3713 54.4944 44.4028 54.4002 44.4133C52.405 44.4315 50.4078 44.4261 48.4199 44.4261Z" fill="#253582"/>
<path d="M48.4199 27.4947C50.3816 27.4947 52.4004 27.4856 54.421 27.5112C54.5223 27.5331 54.6174 27.5773 54.6992 27.6405C54.7811 27.7037 54.8476 27.7844 54.8939 27.8765C55.9123 29.9914 56.5061 32.2829 56.6422 34.623H49.3308C49.029 32.2597 48.7272 29.9019 48.4199 27.4947Z" fill="#253582"/>
<path d="M29.2349 24.8192C30.5606 21.5001 31.9948 18.3533 35.6299 16.7979V24.8192H29.2349Z" fill="#253582"/>
<path d="M35.6299 55.1218C32.0039 53.6539 30.6222 50.4485 29.2349 47.1006H35.6299V55.1218Z" fill="#253582"/>
<path d="M38.3701 16.7979C40.7554 17.1613 44.3619 21.6903 44.7652 24.8192H38.3701V16.7979Z" fill="#253582"/>
<path d="M38.3701 55.1218V47.1006H44.7652C44.7172 49.727 40.917 54.5425 38.3701 55.1218Z" fill="#253582"/>
<path d="M20.0991 24.817C22.7698 21.3562 26.1335 19.0208 30.1485 17.6895C29.1957 19.2672 28.181 20.8983 27.2242 22.5588C26.8886 23.1381 26.7208 23.8001 26.4252 24.3977C26.3729 24.4978 26.2967 24.5857 26.2022 24.6548C26.1078 24.7239 25.9976 24.7724 25.8799 24.7967C24.0102 24.8298 22.1406 24.817 20.0991 24.817Z" fill="#253582"/>
<path d="M52.9874 47.1037C50.5282 50.4106 47.0102 52.9055 42.938 54.2306C43.4678 53.5385 43.988 53.0059 44.3276 52.3882C45.1835 50.8302 45.9481 49.2305 46.7769 47.6581C46.8914 47.4389 47.1495 47.1327 47.3475 47.1291C49.1601 47.0874 50.9728 47.1037 52.9874 47.1037Z" fill="#253582"/>
<path d="M42.938 17.6895C47.076 19.0215 50.3695 21.3742 52.9874 24.8194C50.9331 24.8194 49.034 24.8194 47.1369 24.8047C47.0131 24.8047 46.8305 24.602 46.7775 24.4602C45.8839 22.0153 44.6819 19.7253 42.938 17.6895Z" fill="#253582"/>
<path d="M20.0991 47.1022C22.1101 47.1022 23.9443 47.0931 25.7938 47.1184C25.9323 47.1184 26.138 47.3354 26.1937 47.4891C27.0877 49.8815 28.2547 52.1347 30.1485 54.2306C25.9284 52.8255 22.7023 50.509 20.0991 47.1022Z" fill="#253582"/>
<path d="M67.605 6.47465C68.6904 4.84349 69.7106 3.30136 70.8046 1.64746C71.89 3.28621 72.9168 4.82643 74 6.4595C71.8618 7.19077 69.8083 7.15099 67.605 6.47465Z" fill="#253582"/>
</symbol>


<symbol width="79" height="60" viewBox="0 0 79 60" fill="none" xmlns="http://www.w3.org/2000/svg" id="button-scopus-icon">
<path d="M0 19.9147C4.48789 17.746 8.9751 15.5774 13.4616 13.4088C21.9473 9.28589 30.4275 5.16301 38.9022 1.04014C39.0857 0.933887 39.2941 0.87793 39.5062 0.87793C39.7183 0.87793 39.9267 0.933887 40.1102 1.04014C52.8621 7.25194 65.6189 13.4527 78.3805 19.6426C78.587 19.7415 78.7935 19.8322 79 19.927C78.9546 20.2589 78.6345 20.2548 78.4259 20.3579C77.3253 20.9124 76.2226 21.4628 75.0972 21.9658C74.6078 22.1719 74.4446 22.4605 74.4467 22.9965C74.4674 28.9582 74.4467 34.9199 74.4798 40.8816C74.4798 41.5845 74.2877 41.7412 73.6269 41.7061C72.5953 41.6462 71.5611 41.6462 70.5294 41.7061C69.8852 41.7432 69.7922 41.5 69.7943 40.9372C69.815 35.7712 69.8067 30.6073 69.8067 25.4414V24.6869C69.5155 24.6044 69.3297 24.7817 69.1314 24.8786C59.4949 29.5512 49.8638 34.2362 40.2382 38.9335C40.0103 39.0625 39.7524 39.1295 39.4904 39.1277C39.2283 39.1259 38.9714 39.0554 38.7452 38.9232C26.0456 32.7389 13.3418 26.5587 0.633951 20.3826C0.415063 20.261 0.0784693 20.2548 0 19.9147Z" fill="#253582"/>
<path d="M13.9025 32.2268C14.3762 32.262 14.6892 32.5022 15.029 32.6678C22.9811 36.5551 30.9311 40.4494 38.8791 44.3505C39.0732 44.462 39.2929 44.5206 39.5165 44.5206C39.7401 44.5206 39.9598 44.462 40.1539 44.3505C48.1897 40.401 56.2304 36.4613 64.2759 32.5312C64.523 32.4111 64.7742 32.3034 65.0996 32.1543V36.5027C65.0996 40.3479 65.0996 44.1952 65.1099 48.0425C65.1099 48.4835 64.9987 48.7134 64.5704 48.9039C56.3849 52.5372 48.2062 56.1808 40.0344 59.8349C39.8647 59.9172 39.6781 59.9584 39.4896 59.9551C39.3011 59.9519 39.116 59.9043 38.9491 59.8162C30.8021 56.1746 22.6502 52.5372 14.4936 48.9039C14.1579 48.7548 13.8881 48.6574 13.8901 48.1688C13.9107 42.8762 13.9025 37.5815 13.9025 32.2268Z" fill="#253582"/>
<path d="M72.4891 42.5381L76.6241 49.7002H68.354L72.4891 42.5381Z" fill="#253582"/>
</symbol>


<symbol width="74" height="74" viewBox="0 0 74 74" fill="none" xmlns="http://www.w3.org/2000/svg" id="button-availability-icon">
<path d="M24.6667 0.87207V61.0314H37V0.87207H24.6667ZM37 8.89332L53.4444 61.0314L65.7778 57.0208L49.3333 4.8827L37 8.89332ZM8.22222 8.89332V61.0314H20.5556V8.89332H8.22222ZM0 65.0421V73.0633H74V65.0421H0Z" fill="#253582"/>
</symbol>


<symbol width="87" height="72" viewBox="0 0 87 72" fill="none" xmlns="http://www.w3.org/2000/svg" id="button-electronic-magazines-icon">
<path fill-rule="evenodd" clip-rule="evenodd" d="M15.1305 60.8724C26.2388 60.9969 36.3448 64.0699 45.3344 70.9851C45.3534 70.686 45.3671 70.5384 45.3775 70.4262L45.3827 70.3691L45.3858 70.3336C45.3978 50.7278 45.3903 31.1213 45.3635 11.514C45.34 11.3243 45.2774 11.1416 45.1796 10.9771C45.0818 10.8126 44.951 10.6698 44.7952 10.5579C37.3069 5.43257 29.1071 2.13505 20.019 1.1856C18.9163 1.07055 17.8083 1.01424 16.6966 0.957742C16.1753 0.931252 15.6533 0.904719 15.1305 0.87207V60.8724ZM1.4557 11.7655L1.45481 11.7657C0.969217 11.8689 0.484218 11.9719 0 12.0744V71.9074C0.246959 71.8818 0.492304 71.8426 0.734885 71.7901C9.68229 69.3528 18.9809 68.4315 28.238 69.0649L31.2065 69.273C27.9256 67.8566 24.4373 66.9695 20.8736 66.6452C18.3897 66.4028 15.895 66.2572 13.3791 66.1103L13.3789 66.1103L13.3787 66.1103L13.3764 66.1101C12.2621 66.0451 11.1437 65.9798 10.0202 65.9057V10.0975C9.72696 10.1447 9.4405 10.1877 9.15911 10.23L9.1591 10.23C8.55749 10.3203 7.97906 10.4071 7.40685 10.5247C5.42177 10.9229 3.43382 11.3452 1.4557 11.7655ZM86.9845 70.985C75.0061 68.2119 63.0915 67.9674 51.0652 69.9674V10.496C51.7277 10.4069 52.3892 10.3127 53.0503 10.2186L53.0506 10.2186C54.5145 10.0101 55.9764 9.80192 57.4416 9.65019C61.9603 9.17269 66.5119 9.05482 71.0505 9.29777C76.2587 9.59641 81.4305 10.3289 86.5085 11.4872C86.6975 11.5313 86.8683 11.8176 86.964 12.0268C87.006 12.2144 87.0114 12.4079 86.9799 12.5973V70.9673L86.9845 70.985ZM58.7464 24.3815V53.2868C66.2614 48.4409 73.6625 43.6678 81.1615 38.8308L58.7464 24.3815ZM72.815 39.1549L63.3585 33.1609V45.154L72.815 39.1549Z" fill="#253582"/>
</symbol>




</svg>
