<svg width="14" height="14" viewBox="0 0 14 14" fill="none" xmlns="http://www.w3.org/2000/svg">
<path d="M2.80826 0.384794C2.54433 0.390949 2.2934 0.500649 2.10964 0.690211C1.92588 0.879774 1.82404 1.13399 1.82609 1.39799C1.82815 1.66199 1.93393 1.9146 2.12062 2.10128C2.3073 2.28796 2.55991 2.39374 2.8239 2.39579L10.4043 2.3389L0.682777 12.0604C0.494181 12.249 0.388229 12.5048 0.388228 12.7715C0.388228 13.0382 0.494181 13.294 0.682777 13.4826C0.871373 13.6712 1.12716 13.7771 1.39388 13.7771C1.66059 13.7771 1.91638 13.6712 2.10498 13.4826L11.8222 3.76537L11.7667 11.34C11.7729 11.6013 11.8804 11.8499 12.0667 12.0332C12.253 12.2165 12.5033 12.3201 12.7646 12.3221C13.026 12.324 13.2778 12.2241 13.4668 12.0436C13.6557 11.8631 13.767 11.6161 13.777 11.355L13.8503 1.57944C13.8514 1.4129 13.8195 1.24778 13.7563 1.09369C13.6931 0.939602 13.5999 0.799606 13.4821 0.681838C13.3643 0.56407 13.2243 0.470879 13.0702 0.407677C12.9162 0.344476 12.751 0.312526 12.5845 0.313682L2.80826 0.386216L2.80826 0.384794Z" fill="white"/>
</svg>
