<?xml version="1.0" encoding="utf-8"?>
<!-- Generator: Adobe Illustrator 25.2.0, SVG Export Plug-In . SVG Version: 6.00 Build 0)  -->
<svg version="1.1" id="Layer_1" xmlns="http://www.w3.org/2000/svg" xmlns:xlink="http://www.w3.org/1999/xlink" x="0px" y="0px"
	 viewBox="0 0 37 50" style="enable-background:new 0 0 37 50;" xml:space="preserve">
<style type="text/css">
	.st0{fill:#2B4B9B;}
	.st1{fill:#FFFFFF;}
</style>
<g>
	<path class="st0" d="M18.5,0.3c-6.1,0-12,3.1-15.4,8.4c-1.8,2.9-2.8,6.3-2.8,9.7c0,4.5,1.6,8.6,4.3,11.7l13.9,19
		c2.8-3.8,5.5-7.6,8.3-11.4c4.3-5.9,9.9-11.6,9.9-19.4c0-7.7-5.1-14.8-12.4-17.3C22.4,0.6,20.4,0.2,18.5,0.3z"/>
	<path class="st1" d="M25.8,21.3c-1.8,1.6-3.8,2.6-6.2,2.9c-3.3,0.3-6.2-0.7-8.5-3c-0.2-0.1-0.3-0.4-0.3-0.6c0-1.6,0-3.2,0-4.8
		c0,0,0,0,0-0.1c0.1,0,0.2,0,0.3,0.1c2.2,0.7,4.4,1.5,6.6,2.2c0.5,0.2,1.1,0.2,1.6,0c2.2-0.7,4.4-1.5,6.6-2.2c0.1,0,0.2,0,0.2-0.1
		V16c0,1.5,0,2.9,0,4.4C26.2,20.8,26.1,21,25.8,21.3z"/>
	<path class="st1" d="M30.8,28.6c-0.2,0.4-0.5,0.5-1,0.5c-0.9,0-1.8,0-2.7,0c-0.6,0-0.9-0.3-0.9-0.9c0-1.2,0-2.5,0-3.7
		c0-1,0.5-1.7,1.4-2.1c0.2-0.1,0.2-0.2,0.2-0.3c0-2.2,0-4.5,0-6.7c0-0.2,0.1-0.3,0.3-0.4c0.4-0.1,0.8-0.2,1.2-0.4V15
		c0,2.4,0,4.7,0,7.1c0,0.2,0,0.3,0.2,0.4c1.4,0.6,1.3,2,1.3,3.3C30.8,26.7,30.8,27.6,30.8,28.6z"/>
	<path class="st1" d="M30.8,12.3c-0.1,0.3-0.4,0.5-0.7,0.6c-3.7,1.2-7.5,2.5-11.2,3.7c-0.3,0.1-0.5,0.1-0.8,0
		c-3.8-1.3-7.5-2.5-11.3-3.8c-0.5-0.2-0.7-0.6-0.6-1c0.1-0.2,0.3-0.4,0.5-0.4c2-0.7,4.1-1.3,6.2-2c1.7-0.6,3.5-1.1,5.2-1.7
		c0.2-0.1,0.5-0.1,0.8,0c3.8,1.3,7.5,2.5,11.3,3.8c0.3,0.1,0.6,0.3,0.6,0.7C30.8,12.2,30.8,12.2,30.8,12.3z"/>
</g>
</svg>
